<mxfile host="Electron" agent="Mozilla/5.0 (X11; Linux x86_64) AppleWebKit/537.36 (KHTML, like Gecko) draw.io/24.7.17 Chrome/128.0.6613.36 Electron/32.0.1 Safari/537.36" version="24.7.17">
  <diagram name="Page-1" id="c7558073-3199-34d8-9f00-42111426c3f3">
    <mxGraphModel dx="1147" dy="685" grid="1" gridSize="5" guides="1" tooltips="1" connect="1" arrows="1" fold="1" page="1" pageScale="1" pageWidth="827" pageHeight="583" background="#ffffff" math="0" shadow="0">
      <root>
        <mxCell id="0" />
        <mxCell id="1" parent="0" />
        <mxCell id="44NCKtH-gP_HFTM6XWKn-21" style="edgeStyle=orthogonalEdgeStyle;rounded=0;orthogonalLoop=1;jettySize=auto;html=1;strokeWidth=1;fillColor=#f8cecc;strokeColor=#B85450;labelBackgroundColor=none;fontColor=#B85450;fontSize=13;exitX=1;exitY=0.5;exitDx=0;exitDy=0;entryX=0.326;entryY=-0.002;entryDx=0;entryDy=0;entryPerimeter=0;" edge="1" parent="1" source="44NCKtH-gP_HFTM6XWKn-2" target="XZrWQa47vpsKSi6NGQRx-155">
          <mxGeometry relative="1" as="geometry">
            <Array as="points">
              <mxPoint x="435" y="99" />
              <mxPoint x="435" y="237" />
            </Array>
            <mxPoint x="400" y="47" as="sourcePoint" />
            <mxPoint x="435" y="235" as="targetPoint" />
          </mxGeometry>
        </mxCell>
        <mxCell id="44NCKtH-gP_HFTM6XWKn-19" value="" style="rounded=0;whiteSpace=wrap;html=1;fontSize=12;fillColor=#fff2cc;strokeColor=#d6b656;dashed=1;" vertex="1" parent="1">
          <mxGeometry x="314" y="21.5" width="85" height="30" as="geometry" />
        </mxCell>
        <mxCell id="PMi50G0CGIsBxz_Y-nNm-3" value="" style="rounded=0;whiteSpace=wrap;html=1;fillColor=#fff2cc;strokeColor=#d6b656;dashed=1;" parent="1" vertex="1">
          <mxGeometry x="155" y="160.12" width="85" height="30" as="geometry" />
        </mxCell>
        <mxCell id="xCGFAuXxcPu9EQHwci0N-7" value="" style="rounded=0;whiteSpace=wrap;html=1;fontSize=12;fillColor=#fff2cc;strokeColor=#d6b656;" parent="1" vertex="1">
          <mxGeometry x="586.44" y="20.38" width="85" height="30" as="geometry" />
        </mxCell>
        <mxCell id="xCGFAuXxcPu9EQHwci0N-5" value="&lt;br&gt;&lt;span style=&quot;font-size: 13px;&quot;&gt;&lt;br&gt;&lt;/span&gt;" style="rounded=0;whiteSpace=wrap;html=1;fillColor=#fff2cc;strokeColor=#d6b656;" parent="1" vertex="1">
          <mxGeometry x="55" y="160.12" width="85" height="30" as="geometry" />
        </mxCell>
        <mxCell id="xCGFAuXxcPu9EQHwci0N-4" value="IK" style="rounded=0;whiteSpace=wrap;html=1;fillColor=#fff2cc;strokeColor=#d6b656;dashed=1;" parent="1" vertex="1">
          <mxGeometry x="315" y="159" width="85" height="30" as="geometry" />
        </mxCell>
        <mxCell id="xCGFAuXxcPu9EQHwci0N-2" value="AK" style="rounded=0;whiteSpace=wrap;html=1;fillColor=#fff2cc;strokeColor=#d6b656;" parent="1" vertex="1">
          <mxGeometry x="586" y="160.26" width="85" height="30" as="geometry" />
        </mxCell>
        <mxCell id="3faHX_i5NJa0xrsA4znI-26" value="Platform" style="rounded=0;whiteSpace=wrap;html=1;fillColor=#f8cecc;strokeColor=#B85450;fontSize=13;align=left;" parent="1" vertex="1">
          <mxGeometry x="324" y="228" width="361" height="65" as="geometry" />
        </mxCell>
        <mxCell id="XZrWQa47vpsKSi6NGQRx-155" value="Device" style="rounded=0;whiteSpace=wrap;html=1;fillColor=#f8cecc;strokeColor=#B85450;fontSize=13;align=left;" parent="1" vertex="1">
          <mxGeometry x="314" y="237" width="361" height="65" as="geometry" />
        </mxCell>
        <mxCell id="ssth_0C7Y2jpdA7x6vKq-1" value="" style="rounded=0;whiteSpace=wrap;html=1;dashed=1;fillColor=none;strokeColor=#d79b00;" parent="1" vertex="1">
          <mxGeometry x="370" y="241.38" width="75" height="56.62" as="geometry" />
        </mxCell>
        <mxCell id="3faHX_i5NJa0xrsA4znI-25" value="Root CA(s)" style="rounded=0;whiteSpace=wrap;html=1;fontSize=12;fillColor=#fff2cc;strokeColor=#d6b656;dashed=1;" parent="1" vertex="1">
          <mxGeometry x="120" y="21.5" width="85" height="30" as="geometry" />
        </mxCell>
        <mxCell id="3faHX_i5NJa0xrsA4znI-24" value="" style="rounded=0;whiteSpace=wrap;html=1;fillColor=#fff2cc;strokeColor=#d6b656;dashed=1;" parent="1" vertex="1">
          <mxGeometry x="120" y="78" width="85" height="30" as="geometry" />
        </mxCell>
        <mxCell id="qvZXDAoRQr3HOF4TxtXT-25" value="" style="rounded=0;whiteSpace=wrap;html=1;fontSize=13;fontColor=#506E3E;fontStyle=1" parent="1" vertex="1">
          <mxGeometry x="62.5" y="335" width="590" height="40" as="geometry" />
        </mxCell>
        <mxCell id="weA2HtZw8PSd_01OW3V7-1" style="edgeStyle=orthogonalEdgeStyle;rounded=0;orthogonalLoop=1;jettySize=auto;html=1;strokeWidth=1;fillColor=#f8cecc;strokeColor=#B85450;labelBackgroundColor=none;fontColor=#B85450;fontSize=13;" parent="1" source="yVVpJet7SP2F0J1fTP5u-1" edge="1">
          <mxGeometry relative="1" as="geometry">
            <Array as="points">
              <mxPoint x="417" y="179" />
            </Array>
            <mxPoint x="413.20799999999986" y="157.265" as="sourcePoint" />
            <mxPoint x="417" y="237" as="targetPoint" />
          </mxGeometry>
        </mxCell>
        <mxCell id="XZrWQa47vpsKSi6NGQRx-161" value="&lt;div style=&quot;font-size: 13px;&quot;&gt;&lt;br style=&quot;font-size: 13px;&quot;&gt;&lt;/div&gt;" style="whiteSpace=wrap;html=1;aspect=fixed;fillColor=#fff2cc;strokeColor=#d6b656;fontSize=13;" parent="1" vertex="1">
          <mxGeometry x="72.5" y="344.75" width="19" height="19" as="geometry" />
        </mxCell>
        <mxCell id="qvZXDAoRQr3HOF4TxtXT-1" style="edgeStyle=orthogonalEdgeStyle;rounded=0;orthogonalLoop=1;jettySize=auto;html=1;strokeColor=#000000;fontColor=#009900;startArrow=none;startFill=0;endArrow=classic;endFill=1;fontSize=13;" parent="1" edge="1">
          <mxGeometry relative="1" as="geometry">
            <Array as="points">
              <mxPoint x="371.5" y="356.5" />
              <mxPoint x="371.5" y="356.5" />
            </Array>
            <mxPoint x="352.5" y="356.5" as="sourcePoint" />
            <mxPoint x="382.5" y="356.5" as="targetPoint" />
          </mxGeometry>
        </mxCell>
        <mxCell id="qvZXDAoRQr3HOF4TxtXT-4" value="signs" style="text;html=1;strokeColor=none;fillColor=none;align=left;verticalAlign=middle;whiteSpace=wrap;rounded=0;fontSize=13;" parent="1" vertex="1">
          <mxGeometry x="383.5" y="345.5" width="38" height="20" as="geometry" />
        </mxCell>
        <mxCell id="qvZXDAoRQr3HOF4TxtXT-5" style="edgeStyle=orthogonalEdgeStyle;rounded=0;orthogonalLoop=1;jettySize=auto;html=1;strokeWidth=1;fillColor=#f8cecc;strokeColor=#b85450;labelBackgroundColor=none;fontColor=#B85450;fontSize=13;" parent="1" edge="1">
          <mxGeometry relative="1" as="geometry">
            <Array as="points">
              <mxPoint x="538.94" y="353.75" />
            </Array>
            <mxPoint x="538.94" y="353.75" as="sourcePoint" />
            <mxPoint x="568.94" y="353.75" as="targetPoint" />
          </mxGeometry>
        </mxCell>
        <mxCell id="qvZXDAoRQr3HOF4TxtXT-6" style="edgeStyle=orthogonalEdgeStyle;rounded=0;orthogonalLoop=1;jettySize=auto;html=1;exitX=0.5;exitY=1;exitDx=0;exitDy=0;fontColor=#506E3E;fontSize=13;" parent="1" edge="1">
          <mxGeometry relative="1" as="geometry">
            <mxPoint x="434.5" y="358.88" as="sourcePoint" />
            <mxPoint x="434.5" y="358.88" as="targetPoint" />
          </mxGeometry>
        </mxCell>
        <mxCell id="qvZXDAoRQr3HOF4TxtXT-7" value="&lt;span style=&quot;font-family: helvetica; font-size: 13px; font-style: normal; font-weight: 400; letter-spacing: normal; text-indent: 0px; text-transform: none; word-spacing: 0px; display: inline; float: none;&quot;&gt;provision onto device&lt;/span&gt;" style="text;html=1;align=left;verticalAlign=middle;whiteSpace=wrap;rounded=0;fontSize=13;labelBackgroundColor=none;" parent="1" vertex="1">
          <mxGeometry x="569.94" y="339.25" width="70" height="30" as="geometry" />
        </mxCell>
        <mxCell id="qvZXDAoRQr3HOF4TxtXT-26" value="&lt;div style=&quot;color: rgb(0, 0, 0); font-family: helvetica; font-size: 13px;&quot;&gt;x509&amp;nbsp;&lt;span style=&quot;font-size: 13px;&quot;&gt;Certificate&lt;br style=&quot;font-size: 13px;&quot;&gt;&lt;/span&gt;&lt;/div&gt;" style="text;whiteSpace=wrap;html=1;fontSize=13;fontColor=#506E3E;align=left;" parent="1" vertex="1">
          <mxGeometry x="101.5" y="340.75" width="80" height="23" as="geometry" />
        </mxCell>
        <mxCell id="9Y9nBBow84PKJYLxhup_-4" value="HW Trust Anchor&lt;br&gt;" style="rounded=0;whiteSpace=wrap;html=1;verticalAlign=top;fontSize=13;fillColor=#ffe6cc;strokeColor=#d79b00;fontStyle=1" parent="1" vertex="1">
          <mxGeometry x="445" y="241.38" width="170" height="56.62" as="geometry" />
        </mxCell>
        <mxCell id="9Y9nBBow84PKJYLxhup_-8" value="" style="points=[[0,0.5,0],[0.24,0,0],[0.5,0.28,0],[0.995,0.475,0],[0.5,0.72,0],[0.24,1,0]];verticalLabelPosition=bottom;sketch=0;html=1;verticalAlign=top;aspect=fixed;align=center;pointerEvents=1;shape=mxgraph.cisco19.key;fillColor=#005073;strokeColor=none;fontSize=13;" parent="1" vertex="1">
          <mxGeometry x="374.56" y="258" width="34.44" height="15.5" as="geometry" />
        </mxCell>
        <mxCell id="9Y9nBBow84PKJYLxhup_-9" value="&lt;span style=&quot;color: rgb(0, 0, 0); font-family: helvetica; font-size: 13px; font-style: normal; font-weight: 400; letter-spacing: normal; text-align: center; text-indent: 0px; text-transform: none; word-spacing: 0px; display: inline; float: none;&quot;&gt;IK&lt;br style=&quot;font-size: 13px;&quot;&gt;&lt;/span&gt;" style="text;whiteSpace=wrap;html=1;fontSize=13;fillColor=none;labelBackgroundColor=none;" parent="1" vertex="1">
          <mxGeometry x="409" y="252.31" width="27" height="26.88" as="geometry" />
        </mxCell>
        <mxCell id="9Y9nBBow84PKJYLxhup_-10" value="" style="points=[[0,0.5,0],[0.24,0,0],[0.5,0.28,0],[0.995,0.475,0],[0.5,0.72,0],[0.24,1,0]];verticalLabelPosition=bottom;sketch=0;html=1;verticalAlign=top;aspect=fixed;align=center;pointerEvents=1;shape=mxgraph.cisco19.key;fillColor=#005073;strokeColor=none;fontSize=13;" parent="1" vertex="1">
          <mxGeometry x="511.78" y="269.38" width="34.44" height="15.5" as="geometry" />
        </mxCell>
        <mxCell id="9Y9nBBow84PKJYLxhup_-11" value="&lt;span style=&quot;color: rgb(0 , 0 , 0) ; font-family: &amp;quot;helvetica&amp;quot; ; font-size: 13px ; font-style: normal ; font-weight: 400 ; letter-spacing: normal ; text-align: center ; text-indent: 0px ; text-transform: none ; word-spacing: 0px ; display: inline ; float: none&quot;&gt;AK&lt;br style=&quot;font-size: 13px&quot;&gt;&lt;/span&gt;" style="text;whiteSpace=wrap;html=1;fontSize=13;fillColor=none;labelBackgroundColor=none;" parent="1" vertex="1">
          <mxGeometry x="546.22" y="261.69" width="24" height="26.88" as="geometry" />
        </mxCell>
        <mxCell id="9Y9nBBow84PKJYLxhup_-18" value="" style="points=[[0,0.5,0],[0.24,0,0],[0.5,0.28,0],[0.995,0.475,0],[0.5,0.72,0],[0.24,1,0]];verticalLabelPosition=bottom;sketch=0;html=1;verticalAlign=top;aspect=fixed;align=center;pointerEvents=1;shape=mxgraph.cisco19.key;fillColor=#005073;strokeColor=none;fontSize=13;" parent="1" vertex="1">
          <mxGeometry x="221.5" y="349.25" width="27.75" height="12.5" as="geometry" />
        </mxCell>
        <mxCell id="9Y9nBBow84PKJYLxhup_-19" value="&lt;div style=&quot;color: rgb(0, 0, 0); font-family: helvetica; font-size: 13px;&quot;&gt;&lt;span style=&quot;font-size: 13px;&quot;&gt;Private key&lt;/span&gt;&lt;/div&gt;" style="text;whiteSpace=wrap;html=1;fontSize=13;fontColor=#506E3E;align=left;" parent="1" vertex="1">
          <mxGeometry x="252.5" y="342.25" width="95" height="40" as="geometry" />
        </mxCell>
        <mxCell id="ibMo_6hv5aNAYE1mwl-f-4" value="Intermediate CA(s)" style="rounded=0;whiteSpace=wrap;html=1;fillColor=#fff2cc;strokeColor=#d6b656;dashed=1;" parent="1" vertex="1">
          <mxGeometry x="115" y="83" width="85" height="30" as="geometry" />
        </mxCell>
        <mxCell id="v6hhvwz8bPr6fsz9CwB9-15" style="edgeStyle=orthogonalEdgeStyle;rounded=0;orthogonalLoop=1;jettySize=auto;html=1;fontColor=default;strokeColor=#B85450;strokeWidth=1;entryX=0;entryY=0.5;entryDx=0;entryDy=0;" parent="1" source="ibMo_6hv5aNAYE1mwl-f-7" target="XZrWQa47vpsKSi6NGQRx-155" edge="1">
          <mxGeometry relative="1" as="geometry">
            <Array as="points">
              <mxPoint x="290" y="39" />
              <mxPoint x="290" y="270" />
            </Array>
            <mxPoint x="654" y="156" as="targetPoint" />
          </mxGeometry>
        </mxCell>
        <mxCell id="ibMo_6hv5aNAYE1mwl-f-7" value="Metadata CA(s)" style="rounded=0;whiteSpace=wrap;html=1;fontSize=12;fillColor=#fff2cc;strokeColor=#d6b656;" parent="1" vertex="1">
          <mxGeometry x="115" y="26.5" width="85" height="30" as="geometry" />
        </mxCell>
        <mxCell id="yVVpJet7SP2F0J1fTP5u-1" value="IK" style="rounded=0;whiteSpace=wrap;html=1;fillColor=#fff2cc;strokeColor=#d6b656;" parent="1" vertex="1">
          <mxGeometry x="310" y="163.88" width="85" height="30" as="geometry" />
        </mxCell>
        <mxCell id="3faHX_i5NJa0xrsA4znI-2" value="" style="endArrow=classic;html=1;rounded=0;exitX=0.5;exitY=1;exitDx=0;exitDy=0;" parent="1" source="ibMo_6hv5aNAYE1mwl-f-7" target="ibMo_6hv5aNAYE1mwl-f-4" edge="1">
          <mxGeometry width="50" height="50" relative="1" as="geometry">
            <mxPoint x="125" y="215" as="sourcePoint" />
            <mxPoint x="175" y="165" as="targetPoint" />
          </mxGeometry>
        </mxCell>
        <mxCell id="3faHX_i5NJa0xrsA4znI-3" value="" style="endArrow=classic;html=1;rounded=0;exitX=0.5;exitY=1;exitDx=0;exitDy=0;" parent="1" source="yVVpJet7SP2F0J1fTP5u-1" edge="1">
          <mxGeometry width="50" height="50" relative="1" as="geometry">
            <mxPoint x="278" y="270" as="sourcePoint" />
            <mxPoint x="353" y="238" as="targetPoint" />
          </mxGeometry>
        </mxCell>
        <mxCell id="3faHX_i5NJa0xrsA4znI-4" value="Trust Anchor&amp;nbsp; CA(s)" style="rounded=0;whiteSpace=wrap;html=1;fontSize=12;fillColor=#fff2cc;strokeColor=#d6b656;" parent="1" vertex="1">
          <mxGeometry x="581" y="25.38" width="85" height="30" as="geometry" />
        </mxCell>
        <mxCell id="3faHX_i5NJa0xrsA4znI-5" value="" style="rounded=0;whiteSpace=wrap;html=1;fillColor=#fff2cc;strokeColor=#d6b656;dashed=1;" parent="1" vertex="1">
          <mxGeometry x="587.7800000000001" y="80.5" width="85" height="30" as="geometry" />
        </mxCell>
        <mxCell id="3faHX_i5NJa0xrsA4znI-6" value="" style="endArrow=classic;html=1;rounded=0;entryX=0.5;entryY=0;entryDx=0;entryDy=0;dashed=1;" parent="1" source="3faHX_i5NJa0xrsA4znI-4" target="xCGFAuXxcPu9EQHwci0N-1" edge="1">
          <mxGeometry width="50" height="50" relative="1" as="geometry">
            <mxPoint x="640.56" y="61.38" as="sourcePoint" />
            <mxPoint x="655.56" y="168.38" as="targetPoint" />
          </mxGeometry>
        </mxCell>
        <mxCell id="3faHX_i5NJa0xrsA4znI-14" value="&lt;span style=&quot;font-size: 13px&quot;&gt;Entity 1 (e.g., Developer)&lt;/span&gt;" style="rounded=0;whiteSpace=wrap;html=1;fillColor=#fff2cc;strokeColor=#d6b656;" parent="1" vertex="1">
          <mxGeometry x="50" y="165" width="85" height="30" as="geometry" />
        </mxCell>
        <mxCell id="3faHX_i5NJa0xrsA4znI-15" value="&lt;span style=&quot;font-size: 13px&quot;&gt;Entity n&lt;/span&gt;" style="rounded=0;whiteSpace=wrap;html=1;fillColor=#fff2cc;strokeColor=#d6b656;dashed=1;" parent="1" vertex="1">
          <mxGeometry x="150" y="165" width="85" height="30" as="geometry" />
        </mxCell>
        <mxCell id="3faHX_i5NJa0xrsA4znI-22" value="" style="endArrow=classic;html=1;rounded=0;dashed=1;exitX=0.5;exitY=1;exitDx=0;exitDy=0;entryX=0.5;entryY=0;entryDx=0;entryDy=0;" parent="1" source="ibMo_6hv5aNAYE1mwl-f-4" target="3faHX_i5NJa0xrsA4znI-15" edge="1">
          <mxGeometry width="50" height="50" relative="1" as="geometry">
            <mxPoint x="265" y="269" as="sourcePoint" />
            <mxPoint x="315" y="219" as="targetPoint" />
          </mxGeometry>
        </mxCell>
        <mxCell id="3faHX_i5NJa0xrsA4znI-23" value="" style="endArrow=classic;html=1;rounded=0;exitX=0.5;exitY=1;exitDx=0;exitDy=0;entryX=0.5;entryY=0;entryDx=0;entryDy=0;" parent="1" source="ibMo_6hv5aNAYE1mwl-f-4" target="3faHX_i5NJa0xrsA4znI-14" edge="1">
          <mxGeometry width="50" height="50" relative="1" as="geometry">
            <mxPoint x="265" y="269" as="sourcePoint" />
            <mxPoint x="315" y="219" as="targetPoint" />
          </mxGeometry>
        </mxCell>
        <mxCell id="3faHX_i5NJa0xrsA4znI-27" value="Descriptions" style="rounded=0;whiteSpace=wrap;html=1;fontSize=12;fillColor=#dae8fc;strokeColor=#6c8ebf;" parent="1" vertex="1">
          <mxGeometry x="155" y="228" width="122.5" height="65" as="geometry" />
        </mxCell>
        <mxCell id="3faHX_i5NJa0xrsA4znI-28" value="Manifests" style="rounded=0;whiteSpace=wrap;html=1;fontSize=12;fillColor=#d5e8d4;strokeColor=#82b366;" parent="1" vertex="1">
          <mxGeometry x="15" y="228" width="120" height="65" as="geometry" />
        </mxCell>
        <mxCell id="3faHX_i5NJa0xrsA4znI-16" value="Manifests" style="rounded=0;whiteSpace=wrap;html=1;fontSize=12;fillColor=#d5e8d4;strokeColor=#82b366;" parent="1" vertex="1">
          <mxGeometry x="5" y="237" width="120" height="65" as="geometry" />
        </mxCell>
        <mxCell id="3faHX_i5NJa0xrsA4znI-17" value="Descriptions" style="rounded=0;whiteSpace=wrap;html=1;fontSize=12;fillColor=#dae8fc;strokeColor=#6c8ebf;" parent="1" vertex="1">
          <mxGeometry x="145.75" y="237" width="122.5" height="65" as="geometry" />
        </mxCell>
        <mxCell id="3faHX_i5NJa0xrsA4znI-18" value="" style="endArrow=classic;html=1;rounded=0;exitX=0.5;exitY=1;exitDx=0;exitDy=0;" parent="1" source="3faHX_i5NJa0xrsA4znI-14" edge="1">
          <mxGeometry width="50" height="50" relative="1" as="geometry">
            <mxPoint x="265" y="339.88" as="sourcePoint" />
            <mxPoint x="65" y="238" as="targetPoint" />
          </mxGeometry>
        </mxCell>
        <mxCell id="3faHX_i5NJa0xrsA4znI-21" value="" style="endArrow=classic;html=1;rounded=0;exitX=0.5;exitY=1;exitDx=0;exitDy=0;entryX=0.5;entryY=0;entryDx=0;entryDy=0;dashed=1;" parent="1" source="3faHX_i5NJa0xrsA4znI-15" target="3faHX_i5NJa0xrsA4znI-16" edge="1">
          <mxGeometry width="50" height="50" relative="1" as="geometry">
            <mxPoint x="265" y="339.88" as="sourcePoint" />
            <mxPoint x="315" y="289.88" as="targetPoint" />
          </mxGeometry>
        </mxCell>
        <mxCell id="3faHX_i5NJa0xrsA4znI-20" value="" style="endArrow=classic;html=1;rounded=0;exitX=0.5;exitY=1;exitDx=0;exitDy=0;entryX=0.5;entryY=0;entryDx=0;entryDy=0;" parent="1" source="3faHX_i5NJa0xrsA4znI-14" target="3faHX_i5NJa0xrsA4znI-17" edge="1">
          <mxGeometry width="50" height="50" relative="1" as="geometry">
            <mxPoint x="265" y="339.88" as="sourcePoint" />
            <mxPoint x="315" y="289.88" as="targetPoint" />
          </mxGeometry>
        </mxCell>
        <mxCell id="3faHX_i5NJa0xrsA4znI-19" value="" style="endArrow=classic;html=1;rounded=0;exitX=0.5;exitY=1;exitDx=0;exitDy=0;entryX=0.5;entryY=0;entryDx=0;entryDy=0;dashed=1;" parent="1" source="3faHX_i5NJa0xrsA4znI-15" target="3faHX_i5NJa0xrsA4znI-17" edge="1">
          <mxGeometry width="50" height="50" relative="1" as="geometry">
            <mxPoint x="265" y="339.88" as="sourcePoint" />
            <mxPoint x="315" y="289.88" as="targetPoint" />
          </mxGeometry>
        </mxCell>
        <mxCell id="3faHX_i5NJa0xrsA4znI-32" style="edgeStyle=orthogonalEdgeStyle;rounded=0;orthogonalLoop=1;jettySize=auto;html=1;strokeWidth=1;labelBackgroundColor=none;fontColor=#D99A5F;fontSize=13;dashed=1;endArrow=none;endFill=0;" parent="1" edge="1">
          <mxGeometry relative="1" as="geometry">
            <mxPoint x="466.5" y="354.71000000000004" as="sourcePoint" />
            <mxPoint x="439.5" y="354" as="targetPoint" />
          </mxGeometry>
        </mxCell>
        <mxCell id="3faHX_i5NJa0xrsA4znI-33" value="&lt;font face=&quot;helvetica&quot;&gt;Optional&lt;/font&gt;" style="text;html=1;align=left;verticalAlign=middle;whiteSpace=wrap;rounded=0;fontSize=13;labelBackgroundColor=none;" parent="1" vertex="1">
          <mxGeometry x="470.5" y="345" width="60" height="20" as="geometry" />
        </mxCell>
        <mxCell id="3faHX_i5NJa0xrsA4znI-42" value="AK" style="rounded=0;whiteSpace=wrap;html=1;fillColor=#fff2cc;strokeColor=#d6b656;" parent="1" vertex="1">
          <mxGeometry x="581" y="165.26" width="85" height="28.62" as="geometry" />
        </mxCell>
        <mxCell id="3faHX_i5NJa0xrsA4znI-46" value="" style="endArrow=classic;html=1;rounded=0;dashed=1;exitX=0.5;exitY=1;exitDx=0;exitDy=0;entryX=0.5;entryY=0;entryDx=0;entryDy=0;" parent="1" source="xCGFAuXxcPu9EQHwci0N-1" target="3faHX_i5NJa0xrsA4znI-42" edge="1">
          <mxGeometry width="50" height="50" relative="1" as="geometry">
            <mxPoint x="437.9999999999998" y="125.88" as="sourcePoint" />
            <mxPoint x="585.0000000000002" y="157.87999999999988" as="targetPoint" />
          </mxGeometry>
        </mxCell>
        <mxCell id="3faHX_i5NJa0xrsA4znI-47" style="edgeStyle=orthogonalEdgeStyle;rounded=0;orthogonalLoop=1;jettySize=auto;html=1;strokeWidth=1;fillColor=#f8cecc;strokeColor=#B85450;labelBackgroundColor=none;fontColor=#B85450;fontSize=13;entryX=0.858;entryY=0.021;entryDx=0;entryDy=0;entryPerimeter=0;" parent="1" source="3faHX_i5NJa0xrsA4znI-42" edge="1" target="XZrWQa47vpsKSi6NGQRx-155">
          <mxGeometry relative="1" as="geometry">
            <Array as="points" />
            <mxPoint x="478" y="178" as="sourcePoint" />
            <mxPoint x="478.29999999999995" y="237" as="targetPoint" />
          </mxGeometry>
        </mxCell>
        <mxCell id="3faHX_i5NJa0xrsA4znI-48" style="edgeStyle=orthogonalEdgeStyle;rounded=0;orthogonalLoop=1;jettySize=auto;html=1;fontColor=default;strokeColor=#B85450;strokeWidth=1;exitX=1;exitY=0.5;exitDx=0;exitDy=0;entryX=1;entryY=0.5;entryDx=0;entryDy=0;dashed=1;" parent="1" source="3faHX_i5NJa0xrsA4znI-4" edge="1" target="XZrWQa47vpsKSi6NGQRx-155">
          <mxGeometry relative="1" as="geometry">
            <Array as="points">
              <mxPoint x="700" y="40" />
              <mxPoint x="700" y="270" />
            </Array>
            <mxPoint x="606" y="35.5" as="sourcePoint" />
            <mxPoint x="606" y="237" as="targetPoint" />
          </mxGeometry>
        </mxCell>
        <mxCell id="44NCKtH-gP_HFTM6XWKn-13" value="&lt;span style=&quot;font-size: 8px;&quot;&gt;EST /&lt;/span&gt;&lt;div style=&quot;font-size: 8px;&quot;&gt;Embedded&amp;nbsp;&lt;/div&gt;&lt;div style=&quot;font-size: 8px;&quot;&gt;in Evidence&lt;/div&gt;" style="edgeLabel;html=1;align=center;verticalAlign=middle;resizable=0;points=[];fontSize=8;" vertex="1" connectable="0" parent="3faHX_i5NJa0xrsA4znI-48">
          <mxGeometry x="-0.0644" relative="1" as="geometry">
            <mxPoint as="offset" />
          </mxGeometry>
        </mxCell>
        <mxCell id="xCGFAuXxcPu9EQHwci0N-1" value="Intermediate CA(s)" style="rounded=0;whiteSpace=wrap;html=1;fillColor=#fff2cc;strokeColor=#d6b656;dashed=1;" parent="1" vertex="1">
          <mxGeometry x="581" y="85.5" width="85" height="30" as="geometry" />
        </mxCell>
        <mxCell id="mJ2X7JJiNQuj5i2WIIZH-1" value="" style="edgeStyle=elbowEdgeStyle;elbow=vertical;endArrow=classic;html=1;rounded=0;strokeWidth=1;exitX=0.5;exitY=1;exitDx=0;exitDy=0;entryX=0.25;entryY=1;entryDx=0;entryDy=0;strokeColor=#B85450;" parent="1" source="3faHX_i5NJa0xrsA4znI-17" target="XZrWQa47vpsKSi6NGQRx-155" edge="1">
          <mxGeometry width="50" height="50" relative="1" as="geometry">
            <mxPoint x="280" y="293" as="sourcePoint" />
            <mxPoint x="330" y="243" as="targetPoint" />
            <Array as="points">
              <mxPoint x="310" y="313" />
            </Array>
          </mxGeometry>
        </mxCell>
        <mxCell id="mJ2X7JJiNQuj5i2WIIZH-2" value="" style="edgeStyle=elbowEdgeStyle;elbow=vertical;endArrow=classic;html=1;rounded=0;strokeWidth=1;exitX=0.5;exitY=1;exitDx=0;exitDy=0;entryX=0.25;entryY=1;entryDx=0;entryDy=0;strokeColor=#B85450;" parent="1" source="3faHX_i5NJa0xrsA4znI-16" target="XZrWQa47vpsKSi6NGQRx-155" edge="1">
          <mxGeometry width="50" height="50" relative="1" as="geometry">
            <mxPoint x="222" y="307" as="sourcePoint" />
            <mxPoint x="410" y="313" as="targetPoint" />
            <Array as="points">
              <mxPoint x="235" y="313" />
            </Array>
          </mxGeometry>
        </mxCell>
        <mxCell id="mJ2X7JJiNQuj5i2WIIZH-3" style="edgeStyle=orthogonalEdgeStyle;rounded=0;orthogonalLoop=1;jettySize=auto;html=1;fontColor=default;strokeColor=#B85450;strokeWidth=1;exitX=1;exitY=0.5;exitDx=0;exitDy=0;entryX=0;entryY=0.5;entryDx=0;entryDy=0;" parent="1" source="ibMo_6hv5aNAYE1mwl-f-4" target="XZrWQa47vpsKSi6NGQRx-155" edge="1">
          <mxGeometry relative="1" as="geometry">
            <Array as="points">
              <mxPoint x="290" y="98" />
              <mxPoint x="290" y="270" />
            </Array>
            <mxPoint x="430" y="233" as="targetPoint" />
            <mxPoint x="399" y="44" as="sourcePoint" />
          </mxGeometry>
        </mxCell>
        <mxCell id="44NCKtH-gP_HFTM6XWKn-11" value="&lt;span style=&quot;font-size: 8px;&quot;&gt;EST /&amp;nbsp;&lt;/span&gt;&lt;div&gt;&lt;span style=&quot;font-size: 8px;&quot;&gt;fs:&amp;nbsp;&lt;/span&gt;&lt;span style=&quot;font-size: 8px;&quot;&gt;measured&lt;/span&gt;&lt;/div&gt;" style="edgeLabel;html=1;align=center;verticalAlign=middle;resizable=0;points=[];" vertex="1" connectable="0" parent="mJ2X7JJiNQuj5i2WIIZH-3">
          <mxGeometry x="-0.1204" y="-1" relative="1" as="geometry">
            <mxPoint y="7" as="offset" />
          </mxGeometry>
        </mxCell>
        <mxCell id="noC5I_-mE2TUQeQZgc-e-1" value="Identity&amp;nbsp;&lt;div&gt;CA(s)&lt;/div&gt;" style="rounded=0;whiteSpace=wrap;html=1;fontSize=12;fillColor=#fff2cc;strokeColor=#d6b656;" parent="1" vertex="1">
          <mxGeometry x="310" y="26.5" width="85" height="30" as="geometry" />
        </mxCell>
        <mxCell id="44NCKtH-gP_HFTM6XWKn-1" value="EST TLS&amp;nbsp;&lt;div&gt;CA(s)&lt;/div&gt;" style="rounded=0;whiteSpace=wrap;html=1;fontSize=12;fillColor=#fff2cc;strokeColor=#d6b656;" vertex="1" parent="1">
          <mxGeometry x="462" y="26.5" width="85" height="30" as="geometry" />
        </mxCell>
        <mxCell id="44NCKtH-gP_HFTM6XWKn-2" value="EST Identity / Signing CA(s)" style="rounded=0;whiteSpace=wrap;html=1;fontSize=12;fillColor=#fff2cc;strokeColor=#d6b656;dashed=1;" vertex="1" parent="1">
          <mxGeometry x="310" y="84" width="85" height="30" as="geometry" />
        </mxCell>
        <mxCell id="44NCKtH-gP_HFTM6XWKn-5" value="" style="endArrow=classic;html=1;rounded=0;entryX=0.5;entryY=0;entryDx=0;entryDy=0;exitX=0.5;exitY=1;exitDx=0;exitDy=0;" edge="1" parent="1" source="44NCKtH-gP_HFTM6XWKn-2" target="yVVpJet7SP2F0J1fTP5u-1">
          <mxGeometry width="50" height="50" relative="1" as="geometry">
            <mxPoint x="230" y="170" as="sourcePoint" />
            <mxPoint x="280" y="120" as="targetPoint" />
          </mxGeometry>
        </mxCell>
        <mxCell id="44NCKtH-gP_HFTM6XWKn-6" value="" style="endArrow=classic;html=1;rounded=0;entryX=0.5;entryY=0;entryDx=0;entryDy=0;exitX=0.5;exitY=1;exitDx=0;exitDy=0;" edge="1" parent="1" source="noC5I_-mE2TUQeQZgc-e-1" target="44NCKtH-gP_HFTM6XWKn-2">
          <mxGeometry width="50" height="50" relative="1" as="geometry">
            <mxPoint x="300" y="135" as="sourcePoint" />
            <mxPoint x="350" y="85" as="targetPoint" />
          </mxGeometry>
        </mxCell>
        <mxCell id="44NCKtH-gP_HFTM6XWKn-7" style="edgeStyle=orthogonalEdgeStyle;rounded=0;orthogonalLoop=1;jettySize=auto;html=1;strokeWidth=1;fillColor=#f8cecc;strokeColor=#B85450;labelBackgroundColor=none;fontColor=#B85450;fontSize=13;exitX=1;exitY=0.5;exitDx=0;exitDy=0;entryX=0.327;entryY=0;entryDx=0;entryDy=0;entryPerimeter=0;" edge="1" parent="1">
          <mxGeometry relative="1" as="geometry">
            <Array as="points">
              <mxPoint x="435" y="42" />
              <mxPoint x="435" y="237" />
            </Array>
            <mxPoint x="395" y="41.5" as="sourcePoint" />
            <mxPoint x="432.047" y="237" as="targetPoint" />
          </mxGeometry>
        </mxCell>
        <mxCell id="44NCKtH-gP_HFTM6XWKn-9" value=".well-known/&lt;div style=&quot;font-size: 8px;&quot;&gt;cacerts&lt;/div&gt;" style="edgeLabel;html=1;align=center;verticalAlign=middle;resizable=0;points=[];fontSize=8;" vertex="1" connectable="0" parent="44NCKtH-gP_HFTM6XWKn-7">
          <mxGeometry x="0.1069" relative="1" as="geometry">
            <mxPoint y="7" as="offset" />
          </mxGeometry>
        </mxCell>
        <mxCell id="44NCKtH-gP_HFTM6XWKn-14" value="EST Interm. CA(s)" style="rounded=0;whiteSpace=wrap;html=1;fontSize=12;fillColor=#fff2cc;strokeColor=#d6b656;dashed=1;" vertex="1" parent="1">
          <mxGeometry x="462" y="83" width="85" height="30" as="geometry" />
        </mxCell>
        <mxCell id="44NCKtH-gP_HFTM6XWKn-15" value="" style="endArrow=classic;html=1;rounded=0;entryX=0.5;entryY=0;entryDx=0;entryDy=0;exitX=0.5;exitY=1;exitDx=0;exitDy=0;fillColor=#f8cecc;strokeColor=#b85450;" edge="1" parent="1" source="44NCKtH-gP_HFTM6XWKn-14" target="3faHX_i5NJa0xrsA4znI-26">
          <mxGeometry width="50" height="50" relative="1" as="geometry">
            <mxPoint x="235" y="355" as="sourcePoint" />
            <mxPoint x="285" y="305" as="targetPoint" />
          </mxGeometry>
        </mxCell>
        <mxCell id="44NCKtH-gP_HFTM6XWKn-16" value="" style="endArrow=classic;html=1;rounded=0;exitX=0.5;exitY=1;exitDx=0;exitDy=0;" edge="1" parent="1" source="44NCKtH-gP_HFTM6XWKn-1" target="44NCKtH-gP_HFTM6XWKn-14">
          <mxGeometry width="50" height="50" relative="1" as="geometry">
            <mxPoint x="235" y="355" as="sourcePoint" />
            <mxPoint x="285" y="305" as="targetPoint" />
          </mxGeometry>
        </mxCell>
        <mxCell id="44NCKtH-gP_HFTM6XWKn-17" style="edgeStyle=orthogonalEdgeStyle;rounded=0;orthogonalLoop=1;jettySize=auto;html=1;strokeWidth=1;fillColor=#f8cecc;strokeColor=#B85450;labelBackgroundColor=none;fontColor=#B85450;fontSize=13;entryX=0.682;entryY=-0.03;entryDx=0;entryDy=0;entryPerimeter=0;exitX=1;exitY=0.5;exitDx=0;exitDy=0;" edge="1" parent="1" source="44NCKtH-gP_HFTM6XWKn-1" target="XZrWQa47vpsKSi6NGQRx-155">
          <mxGeometry relative="1" as="geometry">
            <Array as="points">
              <mxPoint x="560" y="42" />
            </Array>
            <mxPoint x="400" y="47" as="sourcePoint" />
            <mxPoint x="437" y="241" as="targetPoint" />
          </mxGeometry>
        </mxCell>
        <mxCell id="44NCKtH-gP_HFTM6XWKn-18" value="fs:&lt;div&gt;measured&lt;/div&gt;" style="edgeLabel;html=1;align=center;verticalAlign=middle;resizable=0;points=[];fontSize=8;" vertex="1" connectable="0" parent="44NCKtH-gP_HFTM6XWKn-17">
          <mxGeometry x="0.1069" relative="1" as="geometry">
            <mxPoint y="-3" as="offset" />
          </mxGeometry>
        </mxCell>
      </root>
    </mxGraphModel>
  </diagram>
</mxfile>
